<svg id="10015.io" viewBox="0 0 480 480" xmlns="http://www.w3.org/2000/svg" xmlns:xlink="http://www.w3.org/1999/xlink" >
	<path fill="#474bff" d="M413.5,264.5Q389,289,361,298.5Q333,308,318,317.5Q303,327,304.5,385Q306,443,273,410Q240,377,211.5,395.5Q183,414,157.5,401Q132,388,144.5,344Q157,300,101.5,301.5Q46,303,81.5,271.5Q117,240,121.5,221.5Q126,203,111.5,169.5Q97,136,101,95.5Q105,55,156.5,97.5Q208,140,224,99Q240,58,270,56.5Q300,55,306.5,97.5Q313,140,337.5,145.5Q362,151,378,170.5Q394,190,416,215Q438,240,413.5,264.5Z" />
</svg>